[img]http://leetleech.org/images/30581637161518842656.jpg[/img]

[b]Prince Of Persia The Sands Of Time (2010) DVDRip XviD-SKITTLES[/b]

[img]http://leetleech.org/images/39185456263711143641.png[/img]

Video
ID                               : 0
Format                           : MPEG-4 Visual
Format profile                   : Advanced Simple@L5
Format settings, BVOP            : Yes
Format settings, QPel            : No
Format settings, GMC             : No warppoints
Format settings, Matrix          : Default (H.263)
Muxing mode                      : Packed bitstream
Codec ID                         : XVID
Codec ID/Hint                    : XviD
Duration                         : 1h 55mn
Bit rate                         : 713 Kbps
Width                            : 608 pixels
Height                           : 256 pixels
Display aspect ratio             : 2.35:1
Frame rate                       : 23.976 fps
Color space                      : YUV
Chroma subsampling               : 4:2:0
Bit depth                        : 8 bits
Scan type                        : Progressive
Bits/(Pixel*Frame)               : 0.191
Stream size                      : 591 MiB (84%)
Writing library                  : XviD 1.2.1 (UTC 2008-12-04)

Audio
ID                               : 1
Format                           : MPEG Audio
Format version                   : Version 1
Format profile                   : Layer 3
Mode                             : Joint stereo
Mode extension                   : MS Stereo
Codec ID                         : 55
Codec ID/Hint                    : MP3
Duration                         : 1h 55mn
Bit rate mode                    : Constant
Bit rate                         : 128 Kbps
Channel(s)                       : 2 channels
Sampling rate                    : 48.0 KHz
Video delay                      : 200ms
Stream size                      : 106 MiB (15%)
Alignment                        : Split accross interleaves
Interleave, duration             : 42 ms (1.00 video frame)
Interleave, preload duration     : 500 ms
 
http://www.imdb.com/title/tt0473075/

[img]http://leetleech.org/images/46941880339015444838.png[/img]

Jake Gyllenhaal	... 	Dastan
Gemma Arterton	... 	Tamina
Ben Kingsley	... 	Nizam
Alfred Molina	... 	Sheik Amar
Steve Toussaint	... 	Seso
Toby Kebbell	... 	Garsiv
Richard Coyle	... 	Tus
Ronald Pickup	... 	King Sharaman
Reece Ritchie	... 	Bis
Gísli Örn Garðarsson... Hassansin Leader
Claudio Pacifico... 	Hassansin Porcupine
Thomas DuPont	... 	Hassansin Whip Man
Dave Pope	... 	Hassansin Giant Scimitar
Domonkos Pardanyi... 	Hassansin Double-Bladed Halberd
Massimilano Ubaldi... 	Hassansin Long Razor

[img]http://leetleech.org/images/70187465700988366433.png[/img]

Genre:
Action | Adventure | Fantasy | Romance 

Plot: 
A young fugitive prince and princess must stop a villain who 
unknowingly threatens to destroy the world with a special dagger
that enables the magic sand inside to reverse time. 

[img]http://leetleech.org/images/64476088802225496360.png[/img]

[img]http://leetleech.org/images/90982433158626566868.png[/img]
[img]http://leetleech.org/images/90760211257924822430.png[/img]
[img]http://leetleech.org/images/14549982658635018383.png[/img]
[img]http://leetleech.org/images/31599255578941223406.png[/img]
[img]http://leetleech.org/images/30855371697424275129.png[/img]
[img]http://leetleech.org/images/10062038634297279391.png[/img]